<svg xmlns:xlink="http://www.w3.org/1999/xlink" xmlns="http://www.w3.org/2000/svg" width="143" height="88" fill="none"><path d="M33.157 28.3h50.204m-50.204 4.807h30.367" stroke="#C9E6FC" stroke-width="1.733" stroke-linecap="round" stroke-linejoin="round"/><path d="M27.129 30.613v.178a7.5 7.5 0 0 1-15.002 0v-.178a7.5 7.5 0 1 1 15.002 0Z" stroke="#C9E6FC" stroke-width="1.733"/><path d="M33.158 9.428h32.935" stroke="#C9E6FC" stroke-width="1.733" stroke-linecap="round" stroke-linejoin="round"/><path d="M27.13 9.25v.178a7.5 7.5 0 1 1-15.003 0V9.25a7.501 7.501 0 0 1 15.002 0Z" stroke="#C9E6FC" stroke-width="1.733"/><path d="M103.917 45.96s-3.114-6.097-3.768-8.275c-.653-2.178-1.96-6.098-1.96-6.098s-3.048.436-1.96 4.138c1.09 3.702 3.05 11.76 3.05 11.76s3.397.435 4.638-1.524Z" fill="#C96A78"/><path d="M139.797 72.64c1.666-8.033.83-14.998-1.867-15.557-2.697-.56-6.234 5.498-7.9 13.53-1.666 8.033-.83 14.998 1.867 15.557 2.697.56 6.234-5.498 7.9-13.53Z" fill="#00CC6F"/><path d="M94.923 59.9s-1.96-6.099-1.96-6.97c0-.871 8.058-6.533 9.364-6.969 1.307-.435 1.59 0 1.59 0s5.379 9.8 5.815 10.672c.436.87 1.742 5.226-.871 8.71-2.613 3.485-4.138 4.139-6.969 3.92-2.831-.217-6.098-.435-6.751-2.177-.654-1.742-.218-7.187-.218-7.187Z" fill="#C96A78"/><path d="M117.355 59.681s-5.009-1.306-6.315-2.177c-1.307-.872-2.897-3.812-2.897-3.812s-4.726 3.376-7.557 6.207c-2.831 2.831-.218 9.365 2.178 9.365 2.395 0 9.364.87 11.324 1.96 1.96 1.089 3.877-6.686 3.877-6.686l1.241-3.659-1.851-1.198Z" fill="url(#a)"/><path opacity=".7" d="M98.843 61.641s-2.396-10.889-2.396-11.76c0-.762 2.68-2.134 5.097-3.528.348-.196.784.044 1.219.044 1.372 0 1.154-.436 1.154-.436s5.38 9.8 5.815 10.671c.436.871 1.742 5.227-.871 8.712-2.613 3.484-4.138 4.137-6.969 3.92-2.831-.218-6.098-.436-6.751-2.178-.654-1.742 3.702-5.445 3.702-5.445Z" fill="url(#b)"/><path d="M101.718 46.07s-2.418-4.683-5.684-5.554c-3.267-.871-6.534.87-6.752 2.178-.217 1.306 3.485 1.524 3.485 1.524l6.425 3.637s1.894.283 2.526-1.786Z" fill="url(#c)"/><path d="M87.823 43.5c-.261 1.654 2.07 3.418 5.205 3.941 3.136.523 5.924-.414 6.185-2.09.262-1.656-2.069-3.42-5.205-3.943-3.158-.5-5.923.436-6.185 2.091Z" fill="url(#d)"/><path d="M99.191 47.855s-2.94-5.815-8.385-5.815c-5.444 0-7.448 5.815-7.448 5.815s1.59.152 1.808 0c.196-.153 5.728-.174 5.728-.174l4.072 2.417 1.525-.218s1.524-.435 1.96-.871c.435-.435.74-1.154.74-1.154Z" fill="url(#e)"/><path d="M84.993 45.46c-.262 1.654 2.069 3.418 5.205 3.94 3.136.524 5.923-.413 6.185-2.09.261-1.655-2.07-3.419-5.205-3.942-3.158-.5-5.924.436-6.185 2.091Z" fill="url(#f)"/><path d="m134.385 78.41-20.82-6.424s-2.374-2.744-.566-8.145c1.829-5.467 4.355-4.857 4.355-4.857l19.187 4.66 1.72 2.81-1.96 5.227-1.916 6.73Z" fill="url(#g)"/><path d="M96.448 49.882s-2.395-4.574-6.315-4.792c-3.92-.217-10.737 4.465-10.737 4.465s2.243 2.287 3.985 1.416c1.743-.872 6.97-3.267 9.583 1.96 0 0 2.613 0 3.484-3.05Z" fill="#C96A78"/><g filter="url(#h)"><rect x="8.191" y="45.536" width="80.417" height="21.639" rx="1.925" transform="rotate(3.488 8.19 45.536)" fill="#fff"/></g><path d="M11.571 56.527a8.367 8.367 0 1 1 16.703 1.018l-.01.177a8.367 8.367 0 0 1-16.703-1.018l.01-.177Z" fill="#00CA72"/><path d="M37.186 60.585 72.37 62.73m-34.892-6.944 24.374 1.486" stroke="#C9E6FC" stroke-width="1.733" stroke-linecap="round" stroke-linejoin="round"/><path d="m15.738 58.397 2.357 2.63 6.422-6.208" stroke="#fff" stroke-width="1.155" stroke-linecap="round" stroke-linejoin="round"/><path d="M101.239 64.472c-.087 1.547-1.96 5.01-5.227 3.703-3.266-1.307-9.8-6.534-10.453-7.187-.653-.654-4.138-1.96-4.791-2.396-.654-.435-.218-1.96 1.089-2.178 1.306-.217 5.444-.217 7.404 1.525 0 0 7.623 1.306 8.276 1.742.653.436 3.92 1.089 3.702 4.791Z" fill="#C96A78"/><mask id="i" style="mask-type:alpha" maskUnits="userSpaceOnUse" x="109" y="55" width="32" height="32"><path d="M139.797 72.64c1.666-8.033.83-14.998-1.867-15.557-2.697-.56-26.802-5.505-28.492 9.946-1.666 8.032 19.762 18.582 22.459 19.141 2.697.56 6.234-5.499 7.9-13.53Z" fill="#00CC6F"/></mask><g mask="url(#i)"><path d="m140.114 80.915-23.956-7.404s-2.723-3.158-.654-9.365c2.091-6.294 5.009-5.597 5.009-5.597l29.401 7.122-1.742 10.453-8.058 4.791Z" fill="url(#j)"/></g><defs><linearGradient id="a" x1="106.329" y1="62.112" x2="114" y2="66.665" gradientUnits="userSpaceOnUse"><stop offset=".427" stop-color="#C96A78"/><stop offset="1" stop-color="#B4505F"/></linearGradient><linearGradient id="b" x1="94.372" y1="49.53" x2="104.066" y2="62.765" gradientUnits="userSpaceOnUse"><stop offset=".427" stop-color="#EA8F88" stop-opacity=".4"/><stop offset="1" stop-color="#B4505F" stop-opacity="0"/></linearGradient><linearGradient id="c" x1="99.001" y1="43.862" x2="91.807" y2="44.536" gradientUnits="userSpaceOnUse"><stop offset=".427" stop-color="#C96A78"/><stop offset="1" stop-color="#B4505F"/></linearGradient><linearGradient id="e" x1="92.593" y1="46.135" x2="87.479" y2="48.327" gradientUnits="userSpaceOnUse"><stop offset=".427" stop-color="#C96A78"/><stop offset="1" stop-color="#B4505F"/></linearGradient><linearGradient id="g" x1="123.509" y1="75.245" x2="125.87" y2="63.78" gradientUnits="userSpaceOnUse"><stop stop-color="#00CC6F"/><stop offset=".482" stop-color="#fff"/></linearGradient><linearGradient id="j" x1="131.914" y1="75.863" x2="132.926" y2="54.282" gradientUnits="userSpaceOnUse"><stop offset=".427" stop-color="#6C6CFF"/><stop offset="1" stop-color="#fff"/></linearGradient><radialGradient id="d" cx="0" cy="0" r="1" gradientUnits="userSpaceOnUse" gradientTransform="matrix(5.69602 .9281 -.49033 3.0093 93.514 44.435)"><stop offset=".314" stop-color="#B4505F"/><stop offset="1" stop-color="#C96A78" stop-opacity="0"/></radialGradient><radialGradient id="f" cx="0" cy="0" r="1" gradientUnits="userSpaceOnUse" gradientTransform="matrix(5.69602 .9281 -.49033 3.0093 90.683 46.395)"><stop offset=".314" stop-color="#B4505F"/><stop offset="1" stop-color="#C96A78" stop-opacity="0"/></radialGradient><filter id="h" x=".64" y="40.836" width="94.823" height="39.731" filterUnits="userSpaceOnUse" color-interpolation-filters="sRGB"><feFlood flood-opacity="0" result="BackgroundImageFix"/><feColorMatrix in="SourceAlpha" values="0 0 0 0 0 0 0 0 0 0 0 0 0 0 0 0 0 0 127 0" result="hardAlpha"/><feOffset dx=".384" dy="1.919"/><feGaussianBlur stdDeviation="3.366"/><feComposite in2="hardAlpha" operator="out"/><feColorMatrix values="0 0 0 0 0.365163 0 0 0 0 0.48472 0 0 0 0 0.908606 0 0 0 0.25 0"/><feBlend in2="BackgroundImageFix" result="effect1_dropShadow_3188_176495"/><feBlend in="SourceGraphic" in2="effect1_dropShadow_3188_176495" result="shape"/></filter></defs></svg>