<svg xmlns:xlink="http://www.w3.org/1999/xlink" xmlns="http://www.w3.org/2000/svg" width="310" height="224" viewBox="0 0 310 224" fill="none">
<circle cx="153" cy="112" r="112" fill="#E5F4FF"/>
<g filter="url(#filter0_d)">
<rect x="12" y="30" width="286" height="163.429" rx="8" fill="white"/>
</g>
<rect x="88.6074" y="64.0469" width="5.10714" height="61.2857" transform="rotate(90 88.6074 64.0469)" fill="#E6E9EF"/>
<rect opacity="0.5" x="32.4277" y="89.584" width="125.976" height="20.4286" fill="#E6E9EF"/>
<rect x="160.107" y="89.584" width="39.1548" height="20.4286" fill="#00C875"/>
<rect x="200.965" y="89.584" width="39.1548" height="20.4286" fill="#00C875"/>
<rect x="241.822" y="89.584" width="39.1548" height="20.4286" fill="#00C875"/>
<rect x="29.0234" y="89.584" width="3.40476" height="20.4286" fill="#0085FF"/>
<rect x="39.2383" y="98.0957" width="40.8571" height="3.40476" fill="#C5C7D0"/>
<rect opacity="0.5" x="32.4277" y="111.714" width="125.976" height="20.4286" fill="#E6E9EF"/>
<rect x="160.107" y="111.714" width="39.1548" height="20.4286" fill="#00C875"/>
<rect x="200.965" y="111.714" width="39.1548" height="20.4286" fill="#00C875"/>
<rect x="241.822" y="111.714" width="39.1548" height="20.4286" fill="#FDAB3D"/>
<rect x="29.0234" y="111.714" width="3.40476" height="20.4286" fill="#0085FF"/>
<rect x="39.2383" y="120.227" width="68.0952" height="3.40476" fill="#C5C7D0"/>
<rect opacity="0.5" x="32.4277" y="133.846" width="125.976" height="20.4286" fill="#E6E9EF"/>
<rect x="160.107" y="133.846" width="39.1548" height="20.4286" fill="#FDAB3D"/>
<rect x="200.965" y="133.846" width="39.1548" height="20.4286" fill="#E2445C"/>
<rect x="241.822" y="133.846" width="39.1548" height="20.4286" fill="#00C875"/>
<rect x="29.0234" y="133.846" width="3.40476" height="20.4286" fill="#0085FF"/>
<rect x="39.2383" y="142.357" width="34.0476" height="3.40476" fill="#C5C7D0"/>
<defs>
<filter id="filter0_d" x="0" y="21" width="310" height="187.429" filterUnits="userSpaceOnUse" color-interpolation-filters="sRGB">
<feFlood flood-opacity="0" result="BackgroundImageFix"/>
<feColorMatrix in="SourceAlpha" type="matrix" values="0 0 0 0 0 0 0 0 0 0 0 0 0 0 0 0 0 0 127 0"/>
<feOffset dy="3"/>
<feGaussianBlur stdDeviation="6"/>
<feColorMatrix type="matrix" values="0 0 0 0 0 0 0 0 0 0 0 0 0 0 0 0 0 0 0.04 0"/>
<feBlend mode="normal" in2="BackgroundImageFix" result="effect1_dropShadow"/>
<feBlend mode="normal" in="SourceGraphic" in2="effect1_dropShadow" result="shape"/>
</filter>
</defs>
</svg>