<?xml version="1.0" encoding="utf-8"?>
<svg viewBox="56.922 62.841 120.673 150.729" xmlns="http://www.w3.org/2000/svg" width='18' height='18'>
  <defs>
    <view id="view-1">
      <title>View 1</title>
    </view>
  </defs>
  <path d="M 78.552 84.585 L 88.115 84.585 L 88.115 182.236 C 88.115 185.395 90.765 187.956 94.035 187.956 L 158.698 187.956 L 158.698 192.509 C 158.698 195.275 156.455 197.518 153.689 197.518 L 78.552 197.518 C 75.786 197.518 73.543 195.275 73.543 192.509 L 73.543 89.594 C 73.543 86.828 75.786 84.585 78.552 84.585 Z" style="fill: #ffff;"/>
  <path d="M 101.856 73.2 L 145.071 73.2 L 169.173 99.283 L 169.173 174.137 C 169.173 176.991 166.895 179.303 164.085 179.303 L 101.856 179.303 C 99.045 179.303 96.768 176.991 96.768 174.137 L 96.768 78.367 C 96.768 75.513 99.045 73.2 101.856 73.2 Z" style="stroke-width: 6px; stroke-linecap: round; stroke-linejoin: round; fill: 
  #ffff;"/>
</svg>