<svg id="Layer_1" data-name="Layer 1" xmlns="http://www.w3.org/2000/svg" viewBox="0 0 257 233"><defs><style>.cls-1{fill:#2ceb71;}</style></defs><path class="cls-1" d="M193.5,282.08c-6.29-39-40.19-69.69-81.65-73.82,43.68-4.32,77.87-37.11,82.24-78.14,4.35,41,38.19,73.54,81.67,78.08C233.86,212.08,199.84,242.52,193.5,282.08Z" transform="translate(-22.5 -51)"/><path class="cls-1" d="M194.09,134c5.81,38.11,37.11,68.23,77.47,74.17-39.23,5.33-70.83,33.93-78.07,71.05-7.18-36.65-38.65-65.4-77.47-71,40.58-5.75,72.21-36.08,78.07-74.26m.08-10-.15,0c-1.51,44.39-38.09,80.38-84.39,83.93.1.21.2.42.29.63,43.12,3.44,77.74,35,83.34,75.29.15,0,.31.07.45.12,5.65-41.06,41.46-73.13,85.72-75.57,0-.13,0-.27.07-.41-46.75-3.13-83.84-39.31-85.33-84Z" transform="translate(-22.5 -51)"/><path class="cls-1" d="M74.34,161.36c-4.28-26.61-24.49-47.46-49.28-50.85,26-3.51,46.3-25.6,49.65-53.39C78,84.87,98.14,106.8,124,110.46,98.93,113.68,78.65,134.4,74.34,161.36Z" transform="translate(-22.5 -51)"/><path class="cls-1" d="M74.7,60.58c4.34,25.28,22.64,45.16,46.2,49.86-23,4.3-41.55,23.35-46.56,48.13-5-24.46-23.42-43.6-46.21-48.06,23.7-4.57,42.2-24.59,46.57-49.93m0-9.58-.09,0c-.93,31.36-23.55,56.77-52.16,59.27l.18.45c26.65,2.43,48.05,24.74,51.51,53.18l.28.08c3.49-29,25.63-51.65,53-53.37a2.89,2.89,0,0,1,0-.29C98.6,108.13,75.68,82.58,74.75,51Z" transform="translate(-22.5 -51)"/></svg>